# xmcd CD database file
#
# Track frame offsets:
#	150
#	15925
#	38037
#	66075
#	85982
#	106017
#	115515
#	138462
#	151412
#	171162
#
# Disc length: 2578 seconds
#
# Revision: 0
# Processed by: cddbd v1.5.1PL0 Copyright (c) Steve Scherf et al.
# Submitted via: CDex 1.51
#
DISCID=6f0a100a
DTITLE=東京ビビンパクラブ - 東京ビビンパクラブ
DYEAR=1996
DGENRE=Other
TTITLE0=パランパラン
TTITLE1=夢さらさら
TTITLE2=東京アリラン
TTITLE3=いろは
TTITLE4=鯨狩り
TTITLE5=やきぐりタリョン
TTITLE6=相馬盆唄
TTITLE7=唄
TTITLE8=ソンジュプリ
TTITLE9=もうやめにしておくれ
EXTD=YEAR: 1996
EXTT0=
EXTT1=
EXTT2=
EXTT3=
EXTT4=
EXTT5=
EXTT6=
EXTT7=
EXTT8=
EXTT9=
PLAYORDER=
